# xmcd
#
# Track frame offsets:
# 150
# 31247
# 50970
# 68840
# 89310
# 124352
# 146847
# 160932
# 193472
# 211047
# 241510
# 263817
# 288812
# 308635
#
# Disc length: 4390 seconds
#
#
# Revision: 0
# Processed by: cddbd v1.4PL0 Copyright (c) Steve Scherf et al.
# Submitted via: FreeRIP 2.12 
#
DISCID=cc11240e
DTITLE=Various Artist - Blues From The Heart
DYEAR=1995
DGENRE=Blues
TTITLE0=She Stays Out Every Dan and Night
TTITLE1=Cross Eyed Cat
TTITLE2=Lucky Man
TTITLE3=Hold It Right There
TTITLE4=Snake Blues
TTITLE5=Business Man Legs
TTITLE6=I'm Good
TTITLE7=Mean Feelin'
TTITLE8=Saved
TTITLE9=Boat Gig
TTITLE10=Hello Little Girl
TTITLE11=One Way Out
TTITLE12=Monster In My Pocket
TTITLE13=Have My Husband
EXTD=Detroit Blues Artists
EXTT0=Uncle Jesse White
EXTT1=Blues Survivors
EXTT2=The Blue Suit Blues Band
EXTT3=The Garfield Blues Band
EXTT4=Mimi Harris and The Snakes
EXTT5=Howling Diablos
EXTT6=Jeff Grand and The Grandmasters
EXTT7=Jonnie Bassett and The Blues Insurgents
EXTT8=The Alligators
EXTT9=Brigade
EXTT10=Detroit Blues Band
EXTT11=City Limit Blues Band
EXTT12=Sharecroppers of Soul
EXTT13=The Chisel Brothers feat. Thornetta Davis
PLAYORDER=
